<svg width="183" height="92" viewBox="0 0 183 92" version="1.1" xmlns="http://www.w3.org/2000/svg" xmlns:xlink="http://www.w3.org/1999/xlink">
<title>Group 2</title>
<desc>Created using Figma</desc>
<g id="Canvas" transform="translate(-1242 101)">
<clipPath id="clip-0" clip-rule="evenodd">
<path d="M 1242 -101L 1425 -101L 1425 -9L 1242 -9L 1242 -101Z" fill="#FFFFFF"/>
</clipPath>
<g id="Group 2" clip-path="url(#clip-0)">
<g id="Group" opacity="0.806895">
<g id="meets">
<use xlink:href="#path0_fill" transform="translate(1242 -78.9066)"/>
</g>
<g id=".fun">
<use xlink:href="#path1_fill" transform="translate(1362 -78.9066)"/>
</g>
<g id="Line">
<use xlink:href="#path2_stroke" transform="translate(1351 -100.821)"/>
</g>
</g>
</g>
</g>
<defs>
<path id="path0_fill" d="M 6.20508 14.9805L 6.32812 16.9668C 7.66406 15.4082 9.49219 14.6289 11.8125 14.6289C 14.3555 14.6289 16.0957 15.6016 17.0332 17.5469C 18.416 15.6016 20.3613 14.6289 22.8691 14.6289C 24.9668 14.6289 26.5254 15.209 27.5449 16.3691C 28.5762 17.5293 29.1035 19.2402 29.127 21.502L 29.127 34L 24.8555 34L 24.8555 21.625C 24.8555 20.418 24.5918 19.5332 24.0645 18.9707C 23.5371 18.4082 22.6641 18.127 21.4453 18.127C 20.4727 18.127 19.6758 18.3906 19.0547 18.918C 18.4453 19.4336 18.0176 20.1133 17.7715 20.957L 17.7891 34L 13.5176 34L 13.5176 21.4844C 13.459 19.2461 12.3164 18.127 10.0898 18.127C 8.37891 18.127 7.16602 18.8242 6.45117 20.2188L 6.45117 34L 2.17969 34L 2.17969 14.9805L 6.20508 14.9805ZM 41.8887 34.3516C 39.1816 34.3516 36.9844 33.502 35.2969 31.8027C 33.6211 30.0918 32.7832 27.8184 32.7832 24.9824L 32.7832 24.4551C 32.7832 22.5566 33.1465 20.8633 33.873 19.375C 34.6113 17.875 35.6426 16.709 36.9668 15.877C 38.291 15.0449 39.7676 14.6289 41.3965 14.6289C 43.9863 14.6289 45.9844 15.4551 47.3906 17.1074C 48.8086 18.7598 49.5176 21.0977 49.5176 24.1211L 49.5176 25.8438L 37.0898 25.8438C 37.2188 27.4141 37.7402 28.6562 38.6543 29.5703C 39.5801 30.4844 40.7402 30.9414 42.1348 30.9414C 44.0918 30.9414 45.6855 30.1504 46.916 28.5684L 49.2188 30.7656C 48.457 31.9023 47.4375 32.7871 46.1602 33.4199C 44.8945 34.041 43.4707 34.3516 41.8887 34.3516ZM 41.3789 18.0566C 40.207 18.0566 39.2578 18.4668 38.5312 19.2871C 37.8164 20.1074 37.3594 21.25 37.1602 22.7148L 45.2988 22.7148L 45.2988 22.3984C 45.2051 20.9688 44.8242 19.8906 44.1562 19.1641C 43.4883 18.4258 42.5625 18.0566 41.3789 18.0566ZM 61.2246 34.3516C 58.5176 34.3516 56.3203 33.502 54.6328 31.8027C 52.957 30.0918 52.1191 27.8184 52.1191 24.9824L 52.1191 24.4551C 52.1191 22.5566 52.4824 20.8633 53.209 19.375C 53.9473 17.875 54.9785 16.709 56.3027 15.877C 57.627 15.0449 59.1035 14.6289 60.7324 14.6289C 63.3223 14.6289 65.3203 15.4551 66.7266 17.1074C 68.1445 18.7598 68.8535 21.0977 68.8535 24.1211L 68.8535 25.8438L 56.4258 25.8438C 56.5547 27.4141 57.0762 28.6562 57.9902 29.5703C 58.916 30.4844 60.0762 30.9414 61.4707 30.9414C 63.4277 30.9414 65.0215 30.1504 66.252 28.5684L 68.5547 30.7656C 67.793 31.9023 66.7734 32.7871 65.4961 33.4199C 64.2305 34.041 62.8066 34.3516 61.2246 34.3516ZM 60.7148 18.0566C 59.543 18.0566 58.5938 18.4668 57.8672 19.2871C 57.1523 20.1074 56.6953 21.25 56.4961 22.7148L 64.6348 22.7148L 64.6348 22.3984C 64.541 20.9688 64.1602 19.8906 63.4922 19.1641C 62.8242 18.4258 61.8984 18.0566 60.7148 18.0566ZM 77.5371 10.3574L 77.5371 14.9805L 80.8945 14.9805L 80.8945 18.1445L 77.5371 18.1445L 77.5371 28.7617C 77.5371 29.4883 77.6777 30.0156 77.959 30.3438C 78.252 30.6602 78.7676 30.8184 79.5059 30.8184C 79.998 30.8184 80.4961 30.7598 81 30.6426L 81 33.9473C 80.0273 34.2168 79.0898 34.3516 78.1875 34.3516C 74.9063 34.3516 73.2656 32.541 73.2656 28.9199L 73.2656 18.1445L 70.1367 18.1445L 70.1367 14.9805L 73.2656 14.9805L 73.2656 10.3574L 77.5371 10.3574ZM 94.834 28.832C 94.834 28.0703 94.5176 27.4902 93.8848 27.0918C 93.2637 26.6934 92.2266 26.3418 90.7734 26.0371C 89.3203 25.7324 88.1074 25.3457 87.1348 24.877C 85.002 23.8457 83.9355 22.3516 83.9355 20.3945C 83.9355 18.7539 84.627 17.3828 86.0098 16.2812C 87.3926 15.1797 89.1504 14.6289 91.2832 14.6289C 93.5566 14.6289 95.3906 15.1914 96.7852 16.3164C 98.1914 17.4414 98.8945 18.9004 98.8945 20.6934L 94.623 20.6934C 94.623 19.873 94.3184 19.1934 93.709 18.6543C 93.0996 18.1035 92.291 17.8281 91.2832 17.8281C 90.3457 17.8281 89.5781 18.0449 88.9805 18.4785C 88.3945 18.9121 88.1016 19.4922 88.1016 20.2188C 88.1016 20.875 88.377 21.3848 88.9277 21.748C 89.4785 22.1113 90.5918 22.4805 92.2676 22.8555C 93.9434 23.2188 95.2559 23.6582 96.2051 24.1738C 97.166 24.6777 97.875 25.2871 98.332 26.002C 98.8008 26.7168 99.0352 27.584 99.0352 28.6035C 99.0352 30.3145 98.3262 31.7031 96.9082 32.7695C 95.4902 33.8242 93.6328 34.3516 91.3359 34.3516C 89.7773 34.3516 88.3887 34.0703 87.1699 33.5078C 85.9512 32.9453 85.002 32.1719 84.3223 31.1875C 83.6426 30.2031 83.3027 29.1426 83.3027 28.0059L 87.4512 28.0059C 87.5098 29.0137 87.8906 29.793 88.5938 30.3438C 89.2969 30.8828 90.2285 31.1523 91.3887 31.1523C 92.5137 31.1523 93.3691 30.9414 93.9551 30.5195C 94.541 30.0859 94.834 29.5234 94.834 28.832Z"/>
<path id="path1_fill" d="M 4.85156 29.5C 5.64844 29.5 6.26367 29.7285 6.69727 30.1855C 7.13086 30.6309 7.34766 31.1934 7.34766 31.873C 7.34766 32.541 7.13086 33.0977 6.69727 33.543C 6.26367 33.9766 5.64844 34.1934 4.85156 34.1934C 4.08984 34.1934 3.48633 33.9766 3.04102 33.543C 2.5957 33.1094 2.37305 32.5527 2.37305 31.873C 2.37305 31.1934 2.58984 30.6309 3.02344 30.1855C 3.45703 29.7285 4.06641 29.5 4.85156 29.5ZM 13.7461 34L 13.7461 18.1445L 10.8457 18.1445L 10.8457 14.9805L 13.7461 14.9805L 13.7461 13.2402C 13.7461 11.1309 14.332 9.50195 15.5039 8.35352C 16.6758 7.20508 18.3164 6.63086 20.4258 6.63086C 21.1758 6.63086 21.9727 6.73633 22.8164 6.94727L 22.7109 10.2871C 22.2422 10.1934 21.6973 10.1465 21.0762 10.1465C 19.0371 10.1465 18.0176 11.1953 18.0176 13.293L 18.0176 14.9805L 21.8848 14.9805L 21.8848 18.1445L 18.0176 18.1445L 18.0176 34L 13.7461 34ZM 36.5273 32.1367C 35.2734 33.6133 33.4922 34.3516 31.1836 34.3516C 29.1211 34.3516 27.5566 33.748 26.4902 32.541C 25.4355 31.334 24.9082 29.5879 24.9082 27.3027L 24.9082 14.9805L 29.1797 14.9805L 29.1797 27.25C 29.1797 29.6641 30.1816 30.8711 32.1855 30.8711C 34.2598 30.8711 35.6602 30.127 36.3867 28.6387L 36.3867 14.9805L 40.6582 14.9805L 40.6582 34L 36.6328 34L 36.5273 32.1367ZM 48.9727 14.9805L 49.0957 17.1777C 50.502 15.4785 52.3477 14.6289 54.6328 14.6289C 58.5937 14.6289 60.6094 16.8965 60.6797 21.4316L 60.6797 34L 56.4082 34L 56.4082 21.6777C 56.4082 20.4707 56.1445 19.5801 55.6172 19.0059C 55.1016 18.4199 54.252 18.127 53.0684 18.127C 51.3457 18.127 50.0625 18.9062 49.2188 20.4648L 49.2188 34L 44.9473 34L 44.9473 14.9805L 48.9727 14.9805Z"/>
<path id="path2_stroke" d="M 3 0L 3 -2L -0.999998 -2L -0.999998 0L 3 0ZM -0.999998 91.642L -0.999998 93.642L 3 93.642L 3 91.642L -0.999998 91.642ZM -0.999998 0L -0.999998 91.642L 3 91.642L 3 0L -0.999998 0Z"/>
</defs>
</svg>
